{"title":"47 Ronin 2013 CAM XViD-MORS","uid":9470846,"size":730178808,"categoryP":"video","categoryS":"movies","magnet":"?xt=urn:btih:2fb7a1e5debf2f1129d4087c81c95a8a59069216&amp;dn=47+Ronin+2013+CAM+XViD-MORS&amp;tr=udp%3A%2F%2Ftracker.openbittorrent.com%3A80&amp;tr=udp%3A%2F%2Fopen.demonii.com%3A1337&amp;tr=udp%3A%2F%2Ftracker.coppersurfer.tk%3A6969&amp;tr=udp%3A%2F%2Fexodus.desync.com%3A6969","seeders":3,"leechers":0,"uploader":"TKTh3K1ng","files":2,"time":1389563848,"description":"[img]http://imageshack.com/a/img545/2469/dyhr.png[/img]\n\n47 Ronin 2013 CAM XViD-MORS\n\n[img]http://imageshack.com/a/img801/6537/4a1y.jpg[/img]\n &lt;a href=&quot;\nhttp://imdb.com/title/tt1335975/&quot; rel=&quot;nofollow&quot; target=&quot;_NEW&quot;&gt;\nhttp://imdb.com/title/tt1335975/&lt;/a&gt;\n\nGeneral\nFormat                                   : AVI\nFormat/Info                              : Audio Video Interleave\nFile size                                : 696 MiB\nDuration                                 : 1h 49mn\nOverall bit rate                         : 892 Kbps\nWriting library                          : VirtualDub build 30080/release\n\nVideo\nID                                       : 0\nFormat                                   : MPEG-4 Visual\nFormat profile                           : Advanced Simple@L5\nFormat settings, BVOP                    : 2\nFormat settings, QPel                    : No\nFormat settings, GMC                     : No warppoints\nFormat settings, Matrix                  : Default (H.263)\nCodec ID                                 : XVID\nCodec ID/Hint                            : XviD\nDuration                                 : 1h 49mn\nBit rate                                 : 770 Kbps\nWidth                                    : 640 pixels\nHeight                                   : 272 pixels\nDisplay aspect ratio                     : 2.35:1\nFrame rate                               : 25.000 fps\nColor space                              : YUV\nChroma subsampling                       : 4:2:0\nBit depth                                : 8 bits\nScan type                                : Progressive\nCompression mode                         : Lossy\nBits/(Pixel*Frame)                       : 0.177\nStream size                              : 601 MiB (86%)\nWriting library                          : XviD 64\n\nAudio\nID                                       : 1\nFormat                                   : MPEG Audio\nFormat version                           : Version 1\nFormat profile                           : Layer 3\nMode                                     : Joint stereo\nMode extension                           : MS Stereo\nCodec ID                                 : 55\nCodec ID/Hint                            : MP3\nDuration                                 : 1h 49mn\nBit rate mode                            : Constant\nBit rate                                 : 112 Kbps\nChannel(s)                               : 2 channels\nSampling rate                            : 48.0 KHz\nCompression mode                         : Lossy\nStream size                              : 87.5 MiB (13%)\nAlignment                                : Split accross interleaves\nInterleave, duration                     : 40 ms (1.00 video frame)\nInterleave, preload duration             : 500 ms\n\n[img]http://i.imgur.com/lzgGD84.png[/img]\n\n[img]http://lookpic.com/O/i2/952/15VoMqZS.png[/img]\n\n[img]http://i.imgur.com/OBGdAvg.png[/img]","torrent":{"xt":"urn:btih:2fb7a1e5debf2f1129d4087c81c95a8a59069216","amp;dn":"47+Ronin+2013+CAM+XViD-MORS","amp;tr":["udp%3A%2F%2Ftracker.openbittorrent.com%3A80","udp%3A%2F%2Fopen.demonii.com%3A1337","udp%3A%2F%2Ftracker.coppersurfer.tk%3A6969","udp%3A%2F%2Fexodus.desync.com%3A6969"],"infoHash":"2fb7a1e5debf2f1129d4087c81c95a8a59069216","infoHashBuffer":{"type":"Buffer","data":[47,183,161,229,222,191,47,17,41,212,8,124,129,201,90,138,89,6,146,22]},"announce":[],"urlList":[]}}